<svg xmlns="http://www.w3.org/2000/svg" width="1600" height="1000" viewBox="0 0 1600 1000">
  <defs>
    <filter id="goldGlow" x="-30%" y="-30%" width="160%" height="160%">
      <feGaussianBlur stdDeviation="8" result="blur"/>
      <feMerge><feMergeNode in="blur"/><feMergeNode in="SourceGraphic"/></feMerge>
    </filter>
    <filter id="softGlow" x="-30%" y="-30%" width="160%" height="160%">
      <feGaussianBlur stdDeviation="5" result="blur"/>
      <feMerge><feMergeNode in="blur"/><feMergeNode in="SourceGraphic"/></feMerge>
    </filter>
  </defs>
  <rect width="1600" height="1000" fill="#0A0A0A"/>
  <line x1="290" y1="760" x2="1110" y2="760" stroke="#D8D8D8" stroke-width="4" opacity="0.2" stroke-linecap="round"/>
  <line x1="290" y1="760" x2="290" y2="230" stroke="#D8D8D8" stroke-width="4" opacity="0.2" stroke-linecap="round"/>
  <path d="M 340 650 L 1080 270" fill="none" stroke="#D4B87A" stroke-width="8" opacity="0.92" stroke-linecap="round" stroke-linejoin="round" filter="url(#goldGlow)"/>
  <path d="M 340 690 L 1080 230" fill="none" stroke="#D8D8D8" stroke-width="5" opacity="0.24" stroke-linecap="round" stroke-linejoin="round" stroke-dasharray="18 16"/>
  <circle cx="338" cy="642.4" r="11" fill="#D4B87A" opacity="0.86"/>
  <circle cx="416" cy="608.8" r="11" fill="#D4B87A" opacity="0.86"/>
  <circle cx="494" cy="586.4" r="11" fill="#D4B87A" opacity="0.86"/>
  <circle cx="572" cy="541.6" r="11" fill="#D4B87A" opacity="0.86"/>
  <circle cx="650" cy="513.6" r="11" fill="#D4B87A" opacity="0.86"/>
  <circle cx="728" cy="468.8" r="11" fill="#D4B87A" opacity="0.86"/>
  <circle cx="806" cy="446.4" r="11" fill="#D4B87A" opacity="0.86"/>
  <circle cx="884" cy="401.6" r="11" fill="#D4B87A" opacity="0.86"/>
  <circle cx="962" cy="379.2" r="11" fill="#D4B87A" opacity="0.86"/>
  <circle cx="1040" cy="356.8" r="15" fill="#E76F51" opacity="0.92"/>
  <line x1="1030" y1="640" x2="1360" y2="640" stroke="#D8D8D8" stroke-width="5" opacity="0.32" stroke-linecap="round"/>
  <line x1="1090" y1="640" x2="1090" y2="500" stroke="#D8D8D8" stroke-width="5" opacity="0.32" stroke-linecap="round"/>
  <line x1="1315" y1="640" x2="1315" y2="730" stroke="#D8D8D8" stroke-width="5" opacity="0.32" stroke-linecap="round"/>
  <rect x="1090" y="500" width="225" height="230" fill="rgba(93,173,226,0.13)" stroke="#5DADE2" stroke-width="5" opacity="0.72"/>
  <line x1="1202" y1="500" x2="1202" y2="730" stroke="#D4B87A" stroke-width="8" opacity="0.95" stroke-linecap="round"/>
  <circle cx="1375" cy="640" r="16" fill="#E76F51" opacity="0.92"/>
  <line x1="1375" y1="640" x2="1440" y2="560" stroke="#E76F51" stroke-width="5" opacity="0.45" stroke-linecap="round" stroke-dasharray="14 12"/>
</svg>
