<svg xmlns="http://www.w3.org/2000/svg" width="1600" height="1000" viewBox="0 0 1600 1000">
  <defs>
    <filter id="goldGlow" x="-30%" y="-30%" width="160%" height="160%">
      <feGaussianBlur stdDeviation="8" result="blur"/>
      <feMerge><feMergeNode in="blur"/><feMergeNode in="SourceGraphic"/></feMerge>
    </filter>
    <filter id="softGlow" x="-30%" y="-30%" width="160%" height="160%">
      <feGaussianBlur stdDeviation="5" result="blur"/>
      <feMerge><feMergeNode in="blur"/><feMergeNode in="SourceGraphic"/></feMerge>
    </filter>
  </defs>
  <rect width="1600" height="1000" fill="#0A0A0A"/>
  <line x1="249.1" y1="248.3" x2="290.9" y2="251.7" stroke="#D8D8D8" stroke-width="4" opacity="0.42" stroke-linecap="round" />
<line x1="334.0" y1="251.3" x2="376.0" y2="248.7" stroke="#D8D8D8" stroke-width="4" opacity="0.42" stroke-linecap="round" />
<line x1="419.1" y1="252.2" x2="460.9" y2="247.8" stroke="#D8D8D8" stroke-width="4" opacity="0.42" stroke-linecap="round" />
<line x1="504.0" y1="251.0" x2="546.0" y2="249.0" stroke="#D8D8D8" stroke-width="4" opacity="0.42" stroke-linecap="round" />
<line x1="589.1" y1="247.8" x2="630.9" y2="252.2" stroke="#D8D8D8" stroke-width="4" opacity="0.42" stroke-linecap="round" />
<line x1="675.1" y1="243.4" x2="714.9" y2="256.6" stroke="#D8D8D8" stroke-width="4" opacity="0.42" stroke-linecap="round" />
<line x1="762.0" y1="239.3" x2="798.0" y2="260.7" stroke="#D8D8D8" stroke-width="4" opacity="0.42" stroke-linecap="round" />
<line x1="849.1" y1="236.3" x2="880.9" y2="263.7" stroke="#D8D8D8" stroke-width="4" opacity="0.42" stroke-linecap="round" />
<line x1="935.8" y1="234.6" x2="964.2" y2="265.4" stroke="#D8D8D8" stroke-width="4" opacity="0.42" stroke-linecap="round" />
<line x1="1021.8" y1="233.7" x2="1048.2" y2="266.3" stroke="#D8D8D8" stroke-width="4" opacity="0.42" stroke-linecap="round" />
<line x1="1107.2" y1="233.4" x2="1132.8" y2="266.6" stroke="#D8D8D8" stroke-width="4" opacity="0.42" stroke-linecap="round" />
<line x1="1191.9" y1="233.6" x2="1218.1" y2="266.4" stroke="#D8D8D8" stroke-width="4" opacity="0.42" stroke-linecap="round" />
<line x1="1275.9" y1="234.4" x2="1304.1" y2="265.6" stroke="#D8D8D8" stroke-width="4" opacity="0.42" stroke-linecap="round" />
<line x1="249.1" y1="321.8" x2="290.9" y2="318.2" stroke="#D8D8D8" stroke-width="4" opacity="0.42" stroke-linecap="round" />
<line x1="334.5" y1="324.6" x2="375.5" y2="315.4" stroke="#D8D8D8" stroke-width="4" opacity="0.42" stroke-linecap="round" />
<line x1="419.7" y1="325.5" x2="460.3" y2="314.5" stroke="#D8D8D8" stroke-width="4" opacity="0.42" stroke-linecap="round" />
<line x1="504.5" y1="324.4" x2="545.5" y2="315.6" stroke="#D8D8D8" stroke-width="4" opacity="0.42" stroke-linecap="round" />
<line x1="589.0" y1="321.3" x2="631.0" y2="318.7" stroke="#D8D8D8" stroke-width="4" opacity="0.42" stroke-linecap="round" />
<line x1="674.3" y1="316.6" x2="715.7" y2="323.4" stroke="#D8D8D8" stroke-width="4" opacity="0.42" stroke-linecap="round" />
<line x1="760.7" y1="311.7" x2="799.3" y2="328.3" stroke="#D8D8D8" stroke-width="4" opacity="0.42" stroke-linecap="round" />
<line x1="847.7" y1="308.0" x2="882.3" y2="332.0" stroke="#D8D8D8" stroke-width="4" opacity="0.42" stroke-linecap="round" />
<line x1="934.5" y1="305.8" x2="965.5" y2="334.2" stroke="#D8D8D8" stroke-width="4" opacity="0.42" stroke-linecap="round" />
<line x1="1020.7" y1="304.7" x2="1049.3" y2="335.3" stroke="#D8D8D8" stroke-width="4" opacity="0.42" stroke-linecap="round" />
<line x1="1106.1" y1="304.3" x2="1133.9" y2="335.7" stroke="#D8D8D8" stroke-width="4" opacity="0.42" stroke-linecap="round" />
<line x1="1190.8" y1="304.6" x2="1219.2" y2="335.4" stroke="#D8D8D8" stroke-width="4" opacity="0.42" stroke-linecap="round" />
<line x1="1274.7" y1="305.6" x2="1305.3" y2="334.4" stroke="#D8D8D8" stroke-width="4" opacity="0.42" stroke-linecap="round" />
<line x1="249.6" y1="395.1" x2="290.4" y2="384.9" stroke="#D8D8D8" stroke-width="4" opacity="0.42" stroke-linecap="round" />
<line x1="335.5" y1="397.7" x2="374.5" y2="382.3" stroke="#D8D8D8" stroke-width="4" opacity="0.42" stroke-linecap="round" />
<line x1="420.8" y1="398.4" x2="459.2" y2="381.6" stroke="#D8D8D8" stroke-width="4" opacity="0.42" stroke-linecap="round" />
<line x1="505.4" y1="397.5" x2="544.6" y2="382.5" stroke="#D8D8D8" stroke-width="4" opacity="0.42" stroke-linecap="round" />
<line x1="589.5" y1="394.6" x2="630.5" y2="385.4" stroke="#D8D8D8" stroke-width="4" opacity="0.42" stroke-linecap="round" />
<line x1="674.0" y1="390.0" x2="716.0" y2="390.0" stroke="#D8D8D8" stroke-width="4" opacity="0.42" stroke-linecap="round" />
<line x1="759.7" y1="384.7" x2="800.3" y2="395.3" stroke="#D8D8D8" stroke-width="4" opacity="0.42" stroke-linecap="round" />
<line x1="846.4" y1="380.2" x2="883.6" y2="399.8" stroke="#D8D8D8" stroke-width="4" opacity="0.42" stroke-linecap="round" />
<line x1="933.2" y1="377.4" x2="966.8" y2="402.6" stroke="#D8D8D8" stroke-width="4" opacity="0.42" stroke-linecap="round" />
<line x1="1019.4" y1="375.9" x2="1050.6" y2="404.1" stroke="#D8D8D8" stroke-width="4" opacity="0.42" stroke-linecap="round" />
<line x1="1104.9" y1="375.4" x2="1135.1" y2="404.6" stroke="#D8D8D8" stroke-width="4" opacity="0.42" stroke-linecap="round" />
<line x1="1189.5" y1="375.8" x2="1220.5" y2="404.2" stroke="#D8D8D8" stroke-width="4" opacity="0.42" stroke-linecap="round" />
<line x1="1273.4" y1="377.1" x2="1306.6" y2="402.9" stroke="#D8D8D8" stroke-width="4" opacity="0.42" stroke-linecap="round" />
<line x1="250.6" y1="468.1" x2="289.4" y2="451.9" stroke="#D8D8D8" stroke-width="4" opacity="0.42" stroke-linecap="round" />
<line x1="336.7" y1="470.3" x2="373.3" y2="449.7" stroke="#D8D8D8" stroke-width="4" opacity="0.42" stroke-linecap="round" />
<line x1="422.0" y1="470.9" x2="458.0" y2="449.1" stroke="#D8D8D8" stroke-width="4" opacity="0.42" stroke-linecap="round" />
<line x1="506.6" y1="470.1" x2="543.4" y2="449.9" stroke="#D8D8D8" stroke-width="4" opacity="0.42" stroke-linecap="round" />
<line x1="590.5" y1="467.7" x2="629.5" y2="452.3" stroke="#D8D8D8" stroke-width="4" opacity="0.42" stroke-linecap="round" />
<line x1="674.3" y1="463.5" x2="715.7" y2="456.5" stroke="#D8D8D8" stroke-width="4" opacity="0.42" stroke-linecap="round" />
<line x1="759.1" y1="458.0" x2="800.9" y2="462.0" stroke="#D8D8D8" stroke-width="4" opacity="0.42" stroke-linecap="round" />
<line x1="845.2" y1="452.9" x2="884.8" y2="467.1" stroke="#D8D8D8" stroke-width="4" opacity="0.42" stroke-linecap="round" />
<line x1="931.9" y1="449.4" x2="968.1" y2="470.6" stroke="#D8D8D8" stroke-width="4" opacity="0.42" stroke-linecap="round" />
<line x1="1018.1" y1="447.5" x2="1051.9" y2="472.5" stroke="#D8D8D8" stroke-width="4" opacity="0.42" stroke-linecap="round" />
<line x1="1103.6" y1="446.9" x2="1136.4" y2="473.1" stroke="#D8D8D8" stroke-width="4" opacity="0.42" stroke-linecap="round" />
<line x1="1188.2" y1="447.4" x2="1221.8" y2="472.6" stroke="#D8D8D8" stroke-width="4" opacity="0.42" stroke-linecap="round" />
<line x1="1272.1" y1="449.1" x2="1307.9" y2="470.9" stroke="#D8D8D8" stroke-width="4" opacity="0.42" stroke-linecap="round" />
<line x1="251.9" y1="540.6" x2="288.1" y2="519.4" stroke="#D8D8D8" stroke-width="4" opacity="0.42" stroke-linecap="round" />
<line x1="338.0" y1="542.3" x2="372.0" y2="517.7" stroke="#D8D8D8" stroke-width="4" opacity="0.42" stroke-linecap="round" />
<line x1="423.4" y1="542.8" x2="456.6" y2="517.2" stroke="#D8D8D8" stroke-width="4" opacity="0.42" stroke-linecap="round" />
<line x1="507.9" y1="542.2" x2="542.1" y2="517.8" stroke="#D8D8D8" stroke-width="4" opacity="0.42" stroke-linecap="round" />
<line x1="591.7" y1="540.3" x2="628.3" y2="519.7" stroke="#D8D8D8" stroke-width="4" opacity="0.42" stroke-linecap="round" />
<line x1="675.1" y1="536.7" x2="714.9" y2="523.3" stroke="#D8D8D8" stroke-width="4" opacity="0.42" stroke-linecap="round" />
<line x1="759.1" y1="531.5" x2="800.9" y2="528.5" stroke="#D8D8D8" stroke-width="4" opacity="0.42" stroke-linecap="round" />
<line x1="844.4" y1="526.0" x2="885.6" y2="534.0" stroke="#D8D8D8" stroke-width="4" opacity="0.42" stroke-linecap="round" />
<line x1="930.6" y1="521.9" x2="969.4" y2="538.1" stroke="#D8D8D8" stroke-width="4" opacity="0.42" stroke-linecap="round" />
<line x1="1016.8" y1="519.6" x2="1053.2" y2="540.4" stroke="#D8D8D8" stroke-width="4" opacity="0.42" stroke-linecap="round" />
<line x1="1102.2" y1="518.8" x2="1137.8" y2="541.2" stroke="#D8D8D8" stroke-width="4" opacity="0.42" stroke-linecap="round" />
<line x1="1186.9" y1="519.4" x2="1223.1" y2="540.6" stroke="#D8D8D8" stroke-width="4" opacity="0.42" stroke-linecap="round" />
<line x1="1270.8" y1="521.5" x2="1309.2" y2="538.5" stroke="#D8D8D8" stroke-width="4" opacity="0.42" stroke-linecap="round" />
<line x1="253.2" y1="612.6" x2="286.8" y2="587.4" stroke="#D8D8D8" stroke-width="4" opacity="0.42" stroke-linecap="round" />
<line x1="339.3" y1="614.0" x2="370.7" y2="586.0" stroke="#D8D8D8" stroke-width="4" opacity="0.42" stroke-linecap="round" />
<line x1="424.7" y1="614.4" x2="455.3" y2="585.6" stroke="#D8D8D8" stroke-width="4" opacity="0.42" stroke-linecap="round" />
<line x1="509.2" y1="613.9" x2="540.8" y2="586.1" stroke="#D8D8D8" stroke-width="4" opacity="0.42" stroke-linecap="round" />
<line x1="593.0" y1="612.3" x2="627.0" y2="587.7" stroke="#D8D8D8" stroke-width="4" opacity="0.42" stroke-linecap="round" />
<line x1="676.2" y1="609.4" x2="713.8" y2="590.6" stroke="#D8D8D8" stroke-width="4" opacity="0.42" stroke-linecap="round" />
<line x1="759.6" y1="604.9" x2="800.4" y2="595.1" stroke="#D8D8D8" stroke-width="4" opacity="0.42" stroke-linecap="round" />
<line x1="844.0" y1="599.5" x2="886.0" y2="600.5" stroke="#D8D8D8" stroke-width="4" opacity="0.42" stroke-linecap="round" />
<line x1="929.6" y1="594.9" x2="970.4" y2="605.1" stroke="#D8D8D8" stroke-width="4" opacity="0.42" stroke-linecap="round" />
<line x1="1015.5" y1="592.1" x2="1054.5" y2="607.9" stroke="#D8D8D8" stroke-width="4" opacity="0.42" stroke-linecap="round" />
<line x1="1100.9" y1="591.2" x2="1139.1" y2="608.8" stroke="#D8D8D8" stroke-width="4" opacity="0.42" stroke-linecap="round" />
<line x1="1185.6" y1="591.9" x2="1224.4" y2="608.1" stroke="#D8D8D8" stroke-width="4" opacity="0.42" stroke-linecap="round" />
<line x1="1269.8" y1="594.4" x2="1310.2" y2="605.6" stroke="#D8D8D8" stroke-width="4" opacity="0.42" stroke-linecap="round" />
<line x1="254.5" y1="684.2" x2="285.5" y2="655.8" stroke="#D8D8D8" stroke-width="4" opacity="0.42" stroke-linecap="round" />
<line x1="340.6" y1="685.3" x2="369.4" y2="654.7" stroke="#D8D8D8" stroke-width="4" opacity="0.42" stroke-linecap="round" />
<line x1="425.9" y1="685.6" x2="454.1" y2="654.4" stroke="#D8D8D8" stroke-width="4" opacity="0.42" stroke-linecap="round" />
<line x1="510.5" y1="685.2" x2="539.5" y2="654.8" stroke="#D8D8D8" stroke-width="4" opacity="0.42" stroke-linecap="round" />
<line x1="594.3" y1="684.0" x2="625.7" y2="656.0" stroke="#D8D8D8" stroke-width="4" opacity="0.42" stroke-linecap="round" />
<line x1="677.5" y1="681.7" x2="712.5" y2="658.3" stroke="#D8D8D8" stroke-width="4" opacity="0.42" stroke-linecap="round" />
<line x1="760.5" y1="677.9" x2="799.5" y2="662.1" stroke="#D8D8D8" stroke-width="4" opacity="0.42" stroke-linecap="round" />
<line x1="844.2" y1="672.9" x2="885.8" y2="667.1" stroke="#D8D8D8" stroke-width="4" opacity="0.42" stroke-linecap="round" />
<line x1="929.1" y1="668.2" x2="970.9" y2="671.8" stroke="#D8D8D8" stroke-width="4" opacity="0.42" stroke-linecap="round" />
<line x1="1014.6" y1="665.2" x2="1055.4" y2="674.8" stroke="#D8D8D8" stroke-width="4" opacity="0.42" stroke-linecap="round" />
<line x1="1099.9" y1="664.1" x2="1140.1" y2="675.9" stroke="#D8D8D8" stroke-width="4" opacity="0.42" stroke-linecap="round" />
<line x1="1184.6" y1="664.9" x2="1225.4" y2="675.1" stroke="#D8D8D8" stroke-width="4" opacity="0.42" stroke-linecap="round" />
<line x1="1269.1" y1="667.7" x2="1310.9" y2="672.3" stroke="#D8D8D8" stroke-width="4" opacity="0.42" stroke-linecap="round" />
<line x1="255.8" y1="755.4" x2="284.2" y2="724.6" stroke="#D8D8D8" stroke-width="4" opacity="0.42" stroke-linecap="round" />
<line x1="341.7" y1="756.3" x2="368.3" y2="723.7" stroke="#D8D8D8" stroke-width="4" opacity="0.42" stroke-linecap="round" />
<line x1="427.0" y1="756.5" x2="453.0" y2="723.5" stroke="#D8D8D8" stroke-width="4" opacity="0.42" stroke-linecap="round" />
<line x1="511.6" y1="756.2" x2="538.4" y2="723.8" stroke="#D8D8D8" stroke-width="4" opacity="0.42" stroke-linecap="round" />
<line x1="595.6" y1="755.3" x2="624.4" y2="724.7" stroke="#D8D8D8" stroke-width="4" opacity="0.42" stroke-linecap="round" />
<line x1="678.9" y1="753.5" x2="711.1" y2="726.5" stroke="#D8D8D8" stroke-width="4" opacity="0.42" stroke-linecap="round" />
<line x1="761.8" y1="750.4" x2="798.2" y2="729.6" stroke="#D8D8D8" stroke-width="4" opacity="0.42" stroke-linecap="round" />
<line x1="844.9" y1="746.2" x2="885.1" y2="733.8" stroke="#D8D8D8" stroke-width="4" opacity="0.42" stroke-linecap="round" />
<line x1="929.1" y1="741.7" x2="970.9" y2="738.3" stroke="#D8D8D8" stroke-width="4" opacity="0.42" stroke-linecap="round" />
<line x1="1014.1" y1="738.5" x2="1055.9" y2="741.5" stroke="#D8D8D8" stroke-width="4" opacity="0.42" stroke-linecap="round" />
<line x1="1099.2" y1="737.3" x2="1140.8" y2="742.7" stroke="#D8D8D8" stroke-width="4" opacity="0.42" stroke-linecap="round" />
<line x1="1184.1" y1="738.3" x2="1225.9" y2="741.7" stroke="#D8D8D8" stroke-width="4" opacity="0.42" stroke-linecap="round" />
<line x1="1269.0" y1="741.2" x2="1311.0" y2="738.8" stroke="#D8D8D8" stroke-width="4" opacity="0.42" stroke-linecap="round" />
<path d="M 235 705 C 430 610 515 450 680 390 C 850 328 1010 410 1135 560 C 1215 655 1310 700 1400 670" fill="none" stroke="#D4B87A" stroke-width="9" opacity="1" stroke-linecap="round" stroke-linejoin="round" filter="url(#goldGlow)"/>
<path d="M 255 440 C 420 360 560 350 690 435 C 815 520 905 660 1045 705 C 1170 745 1280 680 1385 555" fill="none" stroke="#D4B87A" stroke-width="7" opacity="0.78" stroke-linecap="round" stroke-linejoin="round" />
</svg>