<svg xmlns="http://www.w3.org/2000/svg" width="1600" height="1000" viewBox="0 0 1600 1000">
  <defs>
    <filter id="goldGlow" x="-30%" y="-30%" width="160%" height="160%">
      <feGaussianBlur stdDeviation="8" result="blur"/>
      <feMerge><feMergeNode in="blur"/><feMergeNode in="SourceGraphic"/></feMerge>
    </filter>
    <filter id="softGlow" x="-30%" y="-30%" width="160%" height="160%">
      <feGaussianBlur stdDeviation="5" result="blur"/>
      <feMerge><feMergeNode in="blur"/><feMergeNode in="SourceGraphic"/></feMerge>
    </filter>
  </defs>
  <rect width="1600" height="1000" fill="#0A0A0A"/>
  
    <line x1="260" y1="505" x2="1340" y2="505" stroke="#D8D8D8" stroke-width="4" opacity="0.22" stroke-linecap="round" />
    <line x1="300" y1="790" x2="1300" y2="790" stroke="#D8D8D8" stroke-width="4" opacity="0.18" stroke-linecap="round" />
    <line x1="320" y1="790" x2="645" y2="790" stroke="#D4B87A" stroke-width="8" opacity="0.92" stroke-linecap="round" />
    <line x1="1035" y1="790" x2="1280" y2="790" stroke="#D4B87A" stroke-width="8" opacity="0.92" stroke-linecap="round" />
    <path d="M 562.4 316.2 L 571.0 329.7 L 579.7 342.7 L 588.3 355.2 L 597.0 367.2 L 605.6 378.6 L 614.2 389.6 L 622.9 400.1 L 631.5 410.1 L 640.2 419.6 L 648.8 428.6 L 657.4 437.0 L 666.1 445.0 L 674.7 452.5 L 683.4 459.5 L 692.0 466.0 L 700.6 472.0 L 709.3 477.5 L 717.9 482.5 L 726.6 487.0 L 735.2 491.0 L 743.8 494.5 L 752.5 497.4 L 761.1 499.9 L 769.8 501.9 L 778.4 503.4 L 787.0 504.4 L 795.7 504.9 L 804.3 504.9 L 813.0 504.4 L 821.6 503.4 L 830.2 501.9 L 838.9 499.9 L 847.5 497.4 L 856.2 494.5 L 864.8 491.0 L 873.4 487.0 L 882.1 482.5 L 890.7 477.5 L 899.4 472.0 L 908.0 466.0 L 916.6 459.5 L 925.3 452.5 L 933.9 445.0 L 942.6 437.0 L 951.2 428.6 L 959.8 419.6 L 968.5 410.1 L 977.1 400.1 L 985.8 389.6 L 994.4 378.6 L 1003.0 367.2 L 1011.7 355.2 L 1020.3 342.7 L 1029.0 329.7 L 1037.6 316.2" fill="none" stroke="#D8D8D8" stroke-width="6" opacity="0.28" stroke-linecap="round" stroke-linejoin="round" />
    <path d="M 497.6 325.4 L 505.2 355.9 L 512.7 383.6 L 520.3 408.6 L 527.8 431.0 L 535.4 451.0 L 543.0 468.8 L 550.5 484.4 L 558.1 498.0 L 565.6 509.8 L 573.2 519.9 L 580.8 528.4 L 588.3 535.5 L 595.9 541.1 L 603.4 545.6 L 611.0 548.9 L 618.6 551.2 L 626.1 552.6 L 633.7 553.2 L 641.2 553.0 L 648.8 552.2 L 656.4 550.9 L 663.9 549.1 L 671.5 546.9 L 679.0 544.4 L 686.6 541.6 L 694.2 538.7 L 701.7 535.6 L 709.3 532.5 L 716.8 529.4 L 724.4 526.3 L 732.0 523.3 L 739.5 520.4 L 747.1 517.7 L 754.6 515.2 L 762.2 513.0 L 769.8 510.9 L 777.3 509.2 L 784.9 507.7 L 792.4 506.6 L 800.0 505.7 L 807.6 505.2 L 815.1 505.0 L 822.7 505.1 L 830.2 505.5 L 837.8 506.3 L 845.4 507.3 L 852.9 508.5 L 860.5 510.0 L 868.0 511.7 L 875.6 513.6 L 883.2 515.7 L 890.7 517.8 L 898.3 520.0 L 905.8 522.2 L 913.4 524.4 L 921.0 526.5 L 928.5 528.4 L 936.1 530.1 L 943.6 531.6 L 951.2 532.6 L 958.8 533.3 L 966.3 533.4 L 973.9 532.9 L 981.4 531.8 L 989.0 529.8 L 996.6 527.0 L 1004.1 523.3 L 1011.7 518.4 L 1019.2 512.3 L 1026.8 505.0 L 1034.4 496.2 L 1041.9 485.9 L 1049.5 474.0 L 1057.0 460.2 L 1064.6 444.6 L 1072.2 426.8 L 1079.7 406.9 L 1087.3 384.6 L 1094.8 359.9 L 1102.4 332.5" fill="none" stroke="#D8D8D8" stroke-width="5" opacity="0.2" stroke-linecap="round" stroke-linejoin="round" />
    <path d="M 640.2 318.1 L 648.8 333.9 L 657.4 349.2 L 666.1 364.0 L 674.7 378.2 L 683.4 391.8 L 692.0 405.0 L 700.6 417.6 L 709.3 429.6 L 717.9 441.1 L 726.6 452.1 L 735.2 462.5 L 743.8 472.4 L 752.5 481.7 L 761.1 490.5 L 769.8 498.8 L 778.4 506.5 L 787.0 513.6 L 795.7 520.3 L 804.3 526.4 L 813.0 531.9 L 821.6 536.9 L 830.2 541.4 L 838.9 545.3 L 847.5 548.7 L 856.2 551.5 L 864.8 553.8 L 873.4 555.6 L 882.1 556.8 L 890.7 557.5 L 899.4 557.6 L 908.0 557.2 L 916.6 556.3 L 925.3 554.8 L 933.9 552.8 L 942.6 550.2 L 951.2 547.1 L 959.8 543.4 L 968.5 539.2 L 977.1 534.5 L 985.8 529.2 L 994.4 523.4 L 1003.0 517.0 L 1011.7 510.1 L 1020.3 502.7 L 1029.0 494.7 L 1037.6 486.2 L 1046.2 477.1 L 1054.9 467.5 L 1063.5 457.3 L 1072.2 446.7 L 1080.8 435.4 L 1089.4 423.6 L 1098.1 411.3 L 1106.7 398.5 L 1115.4 385.1 L 1124.0 371.1 L 1132.6 356.7 L 1141.3 341.6 L 1149.9 326.1" fill="none" stroke="#D4B87A" stroke-width="10" opacity="1" stroke-linecap="round" stroke-linejoin="round" filter="url(#goldGlow)"/>
    <circle cx="632.6" cy="505" r="12" fill="#D4B87A" opacity="0.95" stroke="none" stroke-width="0"/>
<circle cx="1053.8" cy="505" r="12" fill="#D4B87A" opacity="0.95" stroke="none" stroke-width="0"/>
    <circle cx="897.2" cy="557.65" r="14" fill="#D4B87A" opacity="0.9" stroke="none" stroke-width="0"/>
  
</svg>