<svg xmlns="http://www.w3.org/2000/svg" width="1600" height="1000" viewBox="0 0 1600 1000">
  <defs>
    <filter id="goldGlow" x="-30%" y="-30%" width="160%" height="160%">
      <feGaussianBlur stdDeviation="8" result="blur"/>
      <feMerge><feMergeNode in="blur"/><feMergeNode in="SourceGraphic"/></feMerge>
    </filter>
    <filter id="softGlow" x="-30%" y="-30%" width="160%" height="160%">
      <feGaussianBlur stdDeviation="5" result="blur"/>
      <feMerge><feMergeNode in="blur"/><feMergeNode in="SourceGraphic"/></feMerge>
    </filter>
  </defs>
  <rect width="1600" height="1000" fill="#0A0A0A"/>
  
    <circle cx="420" cy="500" r="170" fill="none" opacity="1" stroke="#D8D8D8" stroke-width="4"/>
    <line x1="229.6" y1="500" x2="610.4" y2="500" stroke="#D8D8D8" stroke-width="3" opacity="0.18" stroke-linecap="round" />
    <line x1="420" y1="690.4" x2="420" y2="309.6" stroke="#D8D8D8" stroke-width="3" opacity="0.18" stroke-linecap="round" />
    <path d="M 542.4 500 A 122.39999999999999 122.39999999999999 0 0 0 311.6379217427227 369.01274872811587" fill="none" stroke="#D4B87A" stroke-width="6" opacity="0.78" stroke-linecap="round" stroke-linejoin="round" />
    <line x1="420" y1="500" x2="311.6379217427227" y2="369.01274872811587" stroke="#D4B87A" stroke-width="10" opacity="1" stroke-linecap="round" filter="url(#goldGlow)"/>
    <line x1="311.6379217427227" y1="369.01274872811587" x2="311.6379217427227" y2="500" stroke="#D8D8D8" stroke-width="4" opacity="0.28" stroke-linecap="round" stroke-dasharray="16 14"/>
    <circle cx="311.6379217427227" cy="369.01274872811587" r="14" fill="#D4B87A" opacity="0.95" stroke="none" stroke-width="0"/>
    <line x1="760" y1="520" x2="1380" y2="520" stroke="#D8D8D8" stroke-width="4" opacity="0.2" stroke-linecap="round" />
    <line x1="880" y1="340" x2="880" y2="700" stroke="#D8D8D8" stroke-width="3" opacity="0.12" stroke-linecap="round" />
    <path d="M 760.0 520.0 L 763.4 533.6 L 766.9 547.2 L 770.3 560.5 L 773.8 573.5 L 777.2 586.1 L 780.7 598.3 L 784.1 609.8 L 787.6 620.6 L 791.0 630.7 L 794.4 639.9 L 797.9 648.2 L 801.3 655.6 L 804.8 661.9 L 808.2 667.1 L 811.7 671.2 L 815.1 674.1 L 818.6 675.9 L 822.0 676.5 L 825.4 675.9 L 828.9 674.1 L 832.3 671.2 L 835.8 667.1 L 839.2 661.9 L 842.7 655.6 L 846.1 648.2 L 849.6 639.9 L 853.0 630.7 L 856.4 620.6 L 859.9 609.8 L 863.3 598.3 L 866.8 586.1 L 870.2 573.5 L 873.7 560.5 L 877.1 547.2 L 880.6 533.6 L 884.0 520.0 L 887.4 506.4 L 890.9 492.8 L 894.3 479.5 L 897.8 466.5 L 901.2 453.9 L 904.7 441.7 L 908.1 430.2 L 911.6 419.4 L 915.0 409.3 L 918.4 400.1 L 921.9 391.8 L 925.3 384.4 L 928.8 378.1 L 932.2 372.9 L 935.7 368.8 L 939.1 365.9 L 942.6 364.1 L 946.0 363.5 L 949.4 364.1 L 952.9 365.9 L 956.3 368.8 L 959.8 372.9 L 963.2 378.1 L 966.7 384.4 L 970.1 391.8 L 973.6 400.1 L 977.0 409.3 L 980.4 419.4 L 983.9 430.2 L 987.3 441.7 L 990.8 453.9 L 994.2 466.5 L 997.7 479.5 L 1001.1 492.8 L 1004.6 506.4 L 1008.0 520.0 L 1011.4 533.6 L 1014.9 547.2 L 1018.3 560.5 L 1021.8 573.5 L 1025.2 586.1 L 1028.7 598.3 L 1032.1 609.8 L 1035.6 620.6 L 1039.0 630.7 L 1042.4 639.9 L 1045.9 648.2 L 1049.3 655.6 L 1052.8 661.9 L 1056.2 667.1 L 1059.7 671.2 L 1063.1 674.1 L 1066.6 675.9 L 1070.0 676.5 L 1073.4 675.9 L 1076.9 674.1 L 1080.3 671.2 L 1083.8 667.1 L 1087.2 661.9 L 1090.7 655.6 L 1094.1 648.2 L 1097.6 639.9 L 1101.0 630.7 L 1104.4 620.6 L 1107.9 609.8 L 1111.3 598.3 L 1114.8 586.1 L 1118.2 573.5 L 1121.7 560.5 L 1125.1 547.2 L 1128.6 533.6 L 1132.0 520.0 L 1135.4 506.4 L 1138.9 492.8 L 1142.3 479.5 L 1145.8 466.5 L 1149.2 453.9 L 1152.7 441.7 L 1156.1 430.2 L 1159.6 419.4 L 1163.0 409.3 L 1166.4 400.1 L 1169.9 391.8 L 1173.3 384.4 L 1176.8 378.1 L 1180.2 372.9 L 1183.7 368.8 L 1187.1 365.9 L 1190.6 364.1 L 1194.0 363.5 L 1197.4 364.1 L 1200.9 365.9 L 1204.3 368.8 L 1207.8 372.9 L 1211.2 378.1 L 1214.7 384.4 L 1218.1 391.8 L 1221.6 400.1 L 1225.0 409.3 L 1228.4 419.4 L 1231.9 430.2 L 1235.3 441.7 L 1238.8 453.9 L 1242.2 466.5 L 1245.7 479.5 L 1249.1 492.8 L 1252.6 506.4 L 1256.0 520.0 L 1259.4 533.6 L 1262.9 547.2 L 1266.3 560.5 L 1269.8 573.5 L 1273.2 586.1 L 1276.7 598.3 L 1280.1 609.8 L 1283.6 620.6 L 1287.0 630.7 L 1290.4 639.9 L 1293.9 648.2 L 1297.3 655.6 L 1300.8 661.9 L 1304.2 667.1 L 1307.7 671.2 L 1311.1 674.1 L 1314.6 675.9 L 1318.0 676.5 L 1321.4 675.9 L 1324.9 674.1 L 1328.3 671.2 L 1331.8 667.1 L 1335.2 661.9 L 1338.7 655.6 L 1342.1 648.2 L 1345.6 639.9 L 1349.0 630.7 L 1352.4 620.6 L 1355.9 609.8 L 1359.3 598.3 L 1362.8 586.1 L 1366.2 573.5 L 1369.7 560.5 L 1373.1 547.2 L 1376.6 533.6 L 1380.0 520.0" fill="none" stroke="#D4B87A" stroke-width="10" opacity="1" stroke-linecap="round" stroke-linejoin="round" filter="url(#goldGlow)"/>
    <path d="M 760.0 402.0 L 763.4 416.7 L 766.9 431.9 L 770.3 447.7 L 773.8 463.8 L 777.2 480.0 L 780.7 496.4 L 784.1 512.8 L 787.6 529.0 L 791.0 544.9 L 794.4 560.4 L 797.9 575.4 L 801.3 589.7 L 804.8 603.3 L 808.2 616.1 L 811.7 627.9 L 815.1 638.7 L 818.6 648.4 L 822.0 656.8 L 825.4 664.1 L 828.9 670.0 L 832.3 674.5 L 835.8 677.7 L 839.2 679.4 L 842.7 679.8 L 846.1 678.7 L 849.6 676.2 L 853.0 672.2 L 856.4 666.9 L 859.9 660.3 L 863.3 652.4 L 866.8 643.3 L 870.2 633.0 L 873.7 621.6 L 877.1 609.3 L 880.6 596.1 L 884.0 582.0 L 887.4 567.3 L 890.9 552.1 L 894.3 536.3 L 897.8 520.2 L 901.2 504.0 L 904.7 487.6 L 908.1 471.2 L 911.6 455.0 L 915.0 439.1 L 918.4 423.6 L 921.9 408.6 L 925.3 394.3 L 928.8 380.7 L 932.2 367.9 L 935.7 356.1 L 939.1 345.3 L 942.6 335.6 L 946.0 327.2 L 949.4 319.9 L 952.9 314.0 L 956.3 309.5 L 959.8 306.3 L 963.2 304.6 L 966.7 304.2 L 970.1 305.3 L 973.6 307.8 L 977.0 311.8 L 980.4 317.1 L 983.9 323.7 L 987.3 331.6 L 990.8 340.7 L 994.2 351.0 L 997.7 362.4 L 1001.1 374.7 L 1004.6 387.9 L 1008.0 402.0 L 1011.4 416.7 L 1014.9 431.9 L 1018.3 447.7 L 1021.8 463.8 L 1025.2 480.0 L 1028.7 496.4 L 1032.1 512.8 L 1035.6 529.0 L 1039.0 544.9 L 1042.4 560.4 L 1045.9 575.4 L 1049.3 589.7 L 1052.8 603.3 L 1056.2 616.1 L 1059.7 627.9 L 1063.1 638.7 L 1066.6 648.4 L 1070.0 656.8 L 1073.4 664.1 L 1076.9 670.0 L 1080.3 674.5 L 1083.8 677.7 L 1087.2 679.4 L 1090.7 679.8 L 1094.1 678.7 L 1097.6 676.2 L 1101.0 672.2 L 1104.4 666.9 L 1107.9 660.3 L 1111.3 652.4 L 1114.8 643.3 L 1118.2 633.0 L 1121.7 621.6 L 1125.1 609.3 L 1128.6 596.1 L 1132.0 582.0 L 1135.4 567.3 L 1138.9 552.1 L 1142.3 536.3 L 1145.8 520.2 L 1149.2 504.0 L 1152.7 487.6 L 1156.1 471.2 L 1159.6 455.0 L 1163.0 439.1 L 1166.4 423.6 L 1169.9 408.6 L 1173.3 394.3 L 1176.8 380.7 L 1180.2 367.9 L 1183.7 356.1 L 1187.1 345.3 L 1190.6 335.6 L 1194.0 327.2 L 1197.4 319.9 L 1200.9 314.0 L 1204.3 309.5 L 1207.8 306.3 L 1211.2 304.6 L 1214.7 304.2 L 1218.1 305.3 L 1221.6 307.8 L 1225.0 311.8 L 1228.4 317.1 L 1231.9 323.7 L 1235.3 331.6 L 1238.8 340.7 L 1242.2 351.0 L 1245.7 362.4 L 1249.1 374.7 L 1252.6 387.9 L 1256.0 402.0 L 1259.4 416.7 L 1262.9 431.9 L 1266.3 447.7 L 1269.8 463.8 L 1273.2 480.0 L 1276.7 496.4 L 1280.1 512.8 L 1283.6 529.0 L 1287.0 544.9 L 1290.4 560.4 L 1293.9 575.4 L 1297.3 589.7 L 1300.8 603.3 L 1304.2 616.1 L 1307.7 627.9 L 1311.1 638.7 L 1314.6 648.4 L 1318.0 656.8 L 1321.4 664.1 L 1324.9 670.0 L 1328.3 674.5 L 1331.8 677.7 L 1335.2 679.4 L 1338.7 679.8 L 1342.1 678.7 L 1345.6 676.2 L 1349.0 672.2 L 1352.4 666.9 L 1355.9 660.3 L 1359.3 652.4 L 1362.8 643.3 L 1366.2 633.0 L 1369.7 621.6 L 1373.1 609.3 L 1376.6 596.1 L 1380.0 582.0" fill="none" stroke="#5DADE2" stroke-width="7" opacity="0.58" stroke-linecap="round" stroke-linejoin="round" filter="url(#softGlow)"/>
    <line x1="311.6379217427227" y1="369.01274872811587" x2="973.28" y2="399.39792721770255" stroke="#D8D8D8" stroke-width="4" opacity="0.24" stroke-linecap="round" stroke-dasharray="18 18"/>
    <circle cx="973.28" cy="399.39792721770255" r="13" fill="#D4B87A" opacity="0.95" stroke="none" stroke-width="0"/>
  
</svg>