<svg xmlns="http://www.w3.org/2000/svg" width="1600" height="1000" viewBox="0 0 1600 1000">
  <defs>
    <filter id="goldGlow" x="-30%" y="-30%" width="160%" height="160%">
      <feGaussianBlur stdDeviation="8" result="blur"/>
      <feMerge><feMergeNode in="blur"/><feMergeNode in="SourceGraphic"/></feMerge>
    </filter>
    <filter id="softGlow" x="-30%" y="-30%" width="160%" height="160%">
      <feGaussianBlur stdDeviation="5" result="blur"/>
      <feMerge><feMergeNode in="blur"/><feMergeNode in="SourceGraphic"/></feMerge>
    </filter>
  </defs>
  <rect width="1600" height="1000" fill="#0A0A0A"/>
  
    <path d="M 170.0 517.9 L 198.0 578.8 L 226.0 584.2 L 254.0 530.4 L 282.0 455.2 L 310.0 411.5 L 338.0 430.1 L 366.0 497.9 L 394.0 567.2 L 422.0 589.2 L 450.0 548.4 L 478.0 473.6 L 506.0 417.4 L 534.0 419.3 L 562.0 478.0 L 590.0 552.2 L 618.0 589.7 L 646.0 564.0 L 674.0 493.3 L 702.0 427.3 L 730.0 412.5 L 758.0 459.2 L 786.0 534.7 L 814.0 585.7 L 842.0 576.4 L 870.0 513.4 L 898.0 440.9 L 926.0 410.0 L 954.0 442.5 L 982.0 515.4 L 1010.0 577.5 L 1038.0 585.1 L 1066.0 532.8 L 1094.0 457.4 L 1122.0 412.0 L 1150.0 428.6 L 1178.0 495.4 L 1206.0 565.5 L 1234.0 589.5 L 1262.0 550.5 L 1290.0 476.0 L 1318.0 418.4 L 1346.0 418.2 L 1374.0 475.6 L 1402.0 550.1 L 1430.0 589.4" fill="none" stroke="#5DADE2" stroke-width="7" opacity="0.34" stroke-linecap="round" stroke-linejoin="round" />
    <path d="M 170.0 575.8 L 198.0 580.5 L 226.0 537.0 L 254.0 471.2 L 282.0 422.7 L 310.0 420.7 L 338.0 466.3 L 366.0 532.2 L 394.0 578.7 L 422.0 578.0 L 450.0 530.4 L 478.0 464.6 L 506.0 420.0 L 534.0 423.5 L 562.0 472.9 L 590.0 538.6 L 618.0 581.1 L 646.0 574.9 L 674.0 523.7 L 702.0 458.2 L 730.0 417.9 L 758.0 426.9 L 786.0 479.8 L 814.0 544.8 L 842.0 583.0 L 870.0 571.3 L 898.0 516.8 L 926.0 452.2 L 954.0 416.3 L 982.0 430.7 L 1010.0 486.7 L 1038.0 550.7 L 1066.0 584.2 L 1094.0 567.1 L 1122.0 509.7 L 1150.0 446.5 L 1178.0 415.4 L 1206.0 435.1 L 1234.0 493.8 L 1262.0 556.2 L 1290.0 584.9 L 1318.0 562.5 L 1346.0 502.6 L 1374.0 441.1 L 1402.0 415.0 L 1430.0 439.9" fill="none" stroke="#D8D8D8" stroke-width="7" opacity="0.32" stroke-linecap="round" stroke-linejoin="round" />
    <path d="M 170.0 581.9 L 198.0 643.6 L 226.0 611.8 L 254.0 507.1 L 282.0 397.9 L 310.0 355.1 L 338.0 406.8 L 366.0 519.1 L 394.0 619.0 L 422.0 641.4 L 450.0 571.7 L 478.0 455.2 L 506.0 368.0 L 534.0 366.7 L 562.0 452.3 L 590.0 568.9 L 618.0 640.7 L 646.0 620.8 L 674.0 522.2 L 702.0 409.2 L 730.0 355.3 L 758.0 395.7 L 786.0 504.0 L 814.0 609.7 L 842.0 644.0 L 870.0 584.5 L 898.0 469.9 L 926.0 375.0 L 954.0 361.5 L 982.0 438.2 L 1010.0 555.2 L 1038.0 636.2 L 1066.0 628.5 L 1094.0 537.1 L 1122.0 421.5 L 1150.0 357.0 L 1178.0 385.7 L 1206.0 488.8 L 1234.0 599.2 L 1262.0 645.0 L 1290.0 596.3 L 1318.0 484.9 L 1346.0 383.3 L 1374.0 357.8 L 1402.0 424.8 L 1430.0 540.9" fill="none" stroke="#D4B87A" stroke-width="10" opacity="1" stroke-linecap="round" stroke-linejoin="round" filter="url(#goldGlow)"/>
    <path d="M 170.0 500.0 L 198.0 538.5 L 226.0 575.2 L 254.0 608.7 L 282.0 637.5 L 310.0 660.2 L 338.0 675.9 L 366.0 684.0 L 394.0 684.0 L 422.0 675.9 L 450.0 660.2 L 478.0 637.5 L 506.0 608.7 L 534.0 575.2 L 562.0 538.5 L 590.0 500.0 L 618.0 461.5 L 646.0 424.8 L 674.0 391.3 L 702.0 362.5 L 730.0 339.8 L 758.0 324.1 L 786.0 316.0 L 814.0 316.0 L 842.0 324.1 L 870.0 339.8 L 898.0 362.5 L 926.0 391.3 L 954.0 424.8 L 982.0 461.5 L 1010.0 500.0 L 1038.0 538.5 L 1066.0 575.2 L 1094.0 608.7 L 1122.0 637.5 L 1150.0 660.2 L 1178.0 675.9 L 1206.0 684.0 L 1234.0 684.0 L 1262.0 675.9 L 1290.0 660.2 L 1318.0 637.5 L 1346.0 608.7 L 1374.0 575.2 L 1402.0 538.5 L 1430.0 500.0" fill="none" stroke="#D4B87A" stroke-width="6" opacity="0.62" stroke-linecap="round" stroke-linejoin="round" stroke-dasharray="18 18"/>
    <path d="M 170.0 500.0 L 198.0 461.5 L 226.0 424.8 L 254.0 391.3 L 282.0 362.5 L 310.0 339.8 L 338.0 324.1 L 366.0 316.0 L 394.0 316.0 L 422.0 324.1 L 450.0 339.8 L 478.0 362.5 L 506.0 391.3 L 534.0 424.8 L 562.0 461.5 L 590.0 500.0 L 618.0 538.5 L 646.0 575.2 L 674.0 608.7 L 702.0 637.5 L 730.0 660.2 L 758.0 675.9 L 786.0 684.0 L 814.0 684.0 L 842.0 675.9 L 870.0 660.2 L 898.0 637.5 L 926.0 608.7 L 954.0 575.2 L 982.0 538.5 L 1010.0 500.0 L 1038.0 461.5 L 1066.0 424.8 L 1094.0 391.3 L 1122.0 362.5 L 1150.0 339.8 L 1178.0 324.1 L 1206.0 316.0 L 1234.0 316.0 L 1262.0 324.1 L 1290.0 339.8 L 1318.0 362.5 L 1346.0 391.3 L 1374.0 424.8 L 1402.0 461.5 L 1430.0 500.0" fill="none" stroke="#D4B87A" stroke-width="6" opacity="0.62" stroke-linecap="round" stroke-linejoin="round" stroke-dasharray="18 18"/>
  
</svg>