<svg xmlns="http://www.w3.org/2000/svg" width="1600" height="1000" viewBox="0 0 1600 1000">
  <defs>
    <filter id="goldGlow" x="-30%" y="-30%" width="160%" height="160%">
      <feGaussianBlur stdDeviation="8" result="blur"/>
      <feMerge><feMergeNode in="blur"/><feMergeNode in="SourceGraphic"/></feMerge>
    </filter>
    <filter id="softGlow" x="-30%" y="-30%" width="160%" height="160%">
      <feGaussianBlur stdDeviation="5" result="blur"/>
      <feMerge><feMergeNode in="blur"/><feMergeNode in="SourceGraphic"/></feMerge>
    </filter>
  </defs>
  <rect width="1600" height="1000" fill="#0A0A0A"/>
  
    <circle cx="560" cy="500" r="210" fill="none" opacity="1" stroke="#D8D8D8" stroke-width="4"/>
    <line x1="324.79999999999995" y1="500" x2="795.2" y2="500" stroke="#D8D8D8" stroke-width="3" opacity="0.18" stroke-linecap="round" />
    <line x1="560" y1="735.2" x2="560" y2="264.79999999999995" stroke="#D8D8D8" stroke-width="3" opacity="0.18" stroke-linecap="round" />
    <line x1="708.492424049175" y1="351.50757595082507" x2="708.492424049175" y2="500" stroke="#D8D8D8" stroke-width="4" opacity="0.28" stroke-linecap="round" stroke-dasharray="16 14"/>
    <line x1="708.492424049175" y1="351.50757595082507" x2="560" y2="351.50757595082507" stroke="#D8D8D8" stroke-width="4" opacity="0.28" stroke-linecap="round" stroke-dasharray="16 14"/>
    <line x1="560" y1="500" x2="708.492424049175" y2="351.50757595082507" stroke="#D4B87A" stroke-width="10" opacity="1" stroke-linecap="round" filter="url(#goldGlow)"/>
    <path d="M 623 500 A 63 63 0 0 0 604.5477272147525 455.4522727852475" fill="none" stroke="#D4B87A" stroke-width="5" opacity="0.72" stroke-linecap="round" stroke-linejoin="round" />
    <circle cx="708.492424049175" cy="351.50757595082507" r="14" fill="#D4B87A" opacity="0.95" stroke="none" stroke-width="0"/>
    <polygon points="1040,710 1210,710 1125,560" fill="rgba(212,184,122,0.08)" stroke="#D8D8D8" stroke-width="4" opacity="0.32" stroke-linejoin="round"/>
    <line x1="1040" y1="710" x2="1210" y2="710" stroke="#D8D8D8" stroke-width="5" opacity="0.32" stroke-linecap="round" />
    <line x1="1210" y1="710" x2="1125" y2="560" stroke="#D8D8D8" stroke-width="4" opacity="0.22" stroke-linecap="round" />
    <line x1="1125" y1="560" x2="1040" y2="710" stroke="#D8D8D8" stroke-width="4" opacity="0.22" stroke-linecap="round" />
    <circle cx="1125" cy="632" r="88" fill="none" opacity="0.22" stroke="#D8D8D8" stroke-width="3"/>
  
</svg>