<svg xmlns="http://www.w3.org/2000/svg" viewBox="0 0 64 64" width="64" height="64" role="img" aria-label="lambda favicon">
  <rect width="64" height="64" rx="14" fill="#0A0A0A"/>
  <path fill="#D4B87A" d="M51.74739195230998 51.21505216095381Q51.74739195230998 52.35514157973175 51.0096870342772 53.32757078986588Q50.271982116244416 54.30000000000001 49.19895678092399 54.30000000000001Q47.119970193740684 54.30000000000001 44.77272727272727 51.583904619970205Q42.42548435171386 48.8678092399404 41.41952309985097 44.37451564828615Q39.74292101341282 36.729210134128174 37.999254843517136 31.229955290611034Q37.19448584202682 28.815648286140096 36.52384500745156 28.480327868852466Q35.8532041728763 28.145007451564837 34.91430700447094 30.022801788375567Q33.43889716840536 33.040685543964244 27.067809239940384 41.15543964232489Q20.696721311475407 49.27019374068555 16.941132637853947 53.02578241430701Q15.935171385991058 54.0317436661699 15.197466467958272 54.0317436661699Q14.728017883755587 54.0317436661699 13.9903129657228 53.52876304023846Q13.252608047690014 53.02578241430701 13.252608047690014 52.55633383010433Q13.252608047690014 50.9467958271237 15.130402384500744 49.06900149031297Q19.087183308494783 45.11222056631894 24.88822652757079 37.86929955290612Q30.689269746646797 30.626378539493302 33.103576751117735 26.468405365126685Q34.57898658718331 23.919970193740692 34.10953800298063 22.9140089418778Q33.17064083457526 20.835022354694495 31.158718330849478 17.884202682563348Q30.08569299552906 16.408792846497768 29.314456035767513 15.939344262295087Q28.54321907600596 15.469895678092406 26.598360655737707 15.201639344262304Q25.45827123695976 15.06751117734725 24.351713859910582 14.296274217585701Q23.2451564828614 13.525037257824152 23.2451564828614 12.787332339791362Q23.2451564828614 9.300000000000004 27.403129657228018 9.300000000000004Q29.482116244411326 9.300000000000004 30.890461997019372 10.305961251862897Q32.29880774962742 11.31192250372579 34.64605067064083 14.530998509687038Q36.72503725782414 17.347690014903137 39.407600596125185 24.825335320417295Q42.09016393442623 32.302980625931454 44.303278688524586 42.63084947839047Q44.77272727272727 44.57570789865873 46.08047690014904 46.48703427719822Q47.388226527570794 48.39836065573771 48.19299552906111 48.39836065573771Q51.74739195230998 48.39836065573771 51.74739195230998 51.21505216095381Z"/>
</svg>
