<svg xmlns="http://www.w3.org/2000/svg" width="1600" height="1000" viewBox="0 0 1600 1000">
  <defs>
    <linearGradient id="volumeFill" x1="0" y1="0" x2="1" y2="0">
      <stop offset="0" stop-color="#5DADE2" stop-opacity="0.02"/>
      <stop offset="0.5" stop-color="#5DADE2" stop-opacity="0.14"/>
      <stop offset="1" stop-color="#5DADE2" stop-opacity="0.02"/>
    </linearGradient>
    <filter id="goldGlow" x="-30%" y="-30%" width="160%" height="160%">
      <feGaussianBlur stdDeviation="8" result="blur"/>
      <feMerge><feMergeNode in="blur"/><feMergeNode in="SourceGraphic"/></feMerge>
    </filter>
  </defs>
  <rect width="1600" height="1000" fill="#0A0A0A"/>
  <line x1="220" y1="520" x2="1380" y2="520" stroke="#D8D8D8" stroke-width="4" opacity="0.24"
    stroke-dasharray="18 16"/>
  <path d="M 300 520 C 450 285 620 225 790 360 C 930 235 1130 275 1300 520
           C 1130 765 930 805 790 680 C 620 815 450 755 300 520 Z"
    fill="url(#volumeFill)" stroke="none"/>
  <g fill="#5DADE2" fill-opacity="0.035" stroke="#5DADE2" stroke-width="5" opacity="0.58">
    <ellipse cx="430" cy="520" rx="30" ry="145"/>
    <ellipse cx="610" cy="520" rx="34" ry="245"/>
    <ellipse cx="790" cy="520" rx="36" ry="160"/>
    <ellipse cx="970" cy="520" rx="34" ry="235"/>
    <ellipse cx="1150" cy="520" rx="30" ry="170"/>
  </g>
  <g stroke="#D8D8D8" stroke-width="4" opacity="0.2">
    <line x1="430" y1="375" x2="430" y2="665"/>
    <line x1="610" y1="275" x2="610" y2="765"/>
    <line x1="790" y1="360" x2="790" y2="680"/>
    <line x1="970" y1="285" x2="970" y2="755"/>
    <line x1="1150" y1="350" x2="1150" y2="690"/>
  </g>
  <path d="M 300 520 C 450 285 620 225 790 360 C 930 235 1130 275 1300 520"
    fill="none" stroke="#D4B87A" stroke-width="10" stroke-linecap="round"
    stroke-linejoin="round" filter="url(#goldGlow)"/>
  <path d="M 300 520 C 450 755 620 815 790 680 C 930 805 1130 765 1300 520"
    fill="none" stroke="#D4B87A" stroke-width="7" stroke-linecap="round"
    stroke-linejoin="round" opacity="0.5"/>
</svg>
