<svg xmlns="http://www.w3.org/2000/svg" width="1600" height="1000" viewBox="0 0 1600 1000">
  <defs>
    <filter id="goldGlow" x="-30%" y="-30%" width="160%" height="160%">
      <feGaussianBlur stdDeviation="8" result="blur"/>
      <feMerge><feMergeNode in="blur"/><feMergeNode in="SourceGraphic"/></feMerge>
    </filter>
    <filter id="softGlow" x="-30%" y="-30%" width="160%" height="160%">
      <feGaussianBlur stdDeviation="5" result="blur"/>
      <feMerge><feMergeNode in="blur"/><feMergeNode in="SourceGraphic"/></feMerge>
    </filter>
  </defs>
  <rect width="1600" height="1000" fill="#0A0A0A"/>
  <path d="M 260 690 L 1010 850 L 1370 600 L 620 440 Z" fill="#D8D8D8" fill-opacity="0.025"
    stroke="#D8D8D8" stroke-width="4" stroke-dasharray="18 18" opacity="0.24"/>
  <g stroke="#D8D8D8" stroke-width="4" opacity="0.18" stroke-dasharray="14 18">
    <line x1="350" y1="760" x2="350" y2="340"/>
    <line x1="350" y1="760" x2="760" y2="870"/>
    <line x1="350" y1="760" x2="610" y2="560"/>
  </g>
  <line x1="310" y1="690" x2="1120" y2="405" stroke="#D4B87A" stroke-width="10"
    stroke-linecap="round" filter="url(#goldGlow)"/>
  <line x1="570" y1="250" x2="1330" y2="415" stroke="#5DADE2" stroke-width="8"
    stroke-linecap="round" opacity="0.9" filter="url(#softGlow)"/>
  <line x1="930" y1="472" x2="960" y2="335" stroke="#D8D8D8" stroke-width="9"
    stroke-linecap="round" filter="url(#softGlow)"/>
  <path d="M 930 472 L 965 484 L 973 447" fill="none" stroke="#D4B87A" stroke-width="6"
    stroke-linejoin="round"/>
  <path d="M 960 335 L 968 300 L 1003 308" fill="none" stroke="#5DADE2" stroke-width="6"
    stroke-linejoin="round"/>
  <circle cx="930" cy="472" r="14" fill="#D4B87A"/>
  <circle cx="960" cy="335" r="14" fill="#5DADE2"/>
</svg>
